<svg width="28" height="28" viewBox="0 0 28 28" fill="none" xmlns="http://www.w3.org/2000/svg">
<path d="M14 2.33331C20.4435 2.33331 25.6667 7.55648 25.6667 14C25.6667 20.4435 20.4435 25.6666 14 25.6666C7.55651 25.6666 2.33334 20.4435 2.33334 14C2.33334 7.55648 7.55651 2.33331 14 2.33331ZM14 4.66665C11.5247 4.66665 9.15069 5.64998 7.40035 7.40032C5.65001 9.15066 4.66668 11.5246 4.66668 14C4.66668 16.4753 5.65001 18.8493 7.40035 20.5996C9.15069 22.35 11.5247 23.3333 14 23.3333C16.4754 23.3333 18.8493 22.35 20.5997 20.5996C22.35 18.8493 23.3333 16.4753 23.3333 14C23.3333 11.5246 22.35 9.15066 20.5997 7.40032C18.8493 5.64998 16.4754 4.66665 14 4.66665ZM14 5.83331C15.1877 5.83331 16.3158 6.08648 17.3343 6.54265L15.5108 8.36498C14.2702 8.03171 12.9542 8.11732 11.7671 8.60852C10.5801 9.09972 9.58838 9.96904 8.94596 11.0815C8.30354 12.194 8.04634 13.4875 8.21426 14.7611C8.38219 16.0348 8.96586 17.2173 9.87468 18.1253L8.22501 19.775L8.04301 19.5871C6.95314 18.4253 6.22689 16.97 5.95368 15.4006C5.68048 13.8311 5.87225 12.216 6.50539 10.7542C7.13852 9.29241 8.18538 8.04768 9.51702 7.17333C10.8487 6.29898 12.407 5.83318 14 5.83331ZM21.4573 10.6668C21.9123 11.6841 22.1667 12.8135 22.1667 14C22.1679 15.0726 21.9573 16.135 21.5468 17.126C21.1364 18.1171 20.5343 19.0173 19.775 19.775L18.1253 18.1253C18.8505 17.4016 19.3718 16.4995 19.6369 15.5099C19.902 14.5204 19.9013 13.4784 19.635 12.4891L21.4573 10.6668ZM18.949 7.40015L20.5998 9.04981L16.2552 13.3968C16.3472 13.7426 16.3586 14.1048 16.2884 14.4556C16.2183 14.8065 16.0685 15.1365 15.8505 15.4203C15.6326 15.704 15.3524 15.9339 15.0316 16.0922C14.7107 16.2505 14.3578 16.333 14 16.3333C13.6683 16.3327 13.3405 16.2614 13.0385 16.124C12.7365 15.9867 12.4673 15.7866 12.2487 15.537C12.0302 15.2874 11.8674 14.9941 11.7712 14.6766C11.675 14.3591 11.6476 14.0248 11.6909 13.6959C11.7341 13.367 11.847 13.0511 12.022 12.7692C12.1969 12.4874 12.43 12.2461 12.7056 12.0615C12.9812 11.8768 13.293 11.7531 13.6202 11.6985C13.9475 11.6439 14.2826 11.6597 14.6032 11.7448L18.949 7.40015Z" fill="#99A4AE"/>
</svg>
