<svg width="24" height="24" viewBox="0 0 24 24" fill="none" xmlns="http://www.w3.org/2000/svg">
<path d="M13.2024 2.86559C12.872 2.56875 12.4435 2.40454 11.9994 2.40454C11.5553 2.40454 11.1268 2.56875 10.7964 2.86559L4.1964 8.79599C4.00875 8.96474 3.85868 9.17107 3.75593 9.40157C3.65318 9.63208 3.60006 9.88162 3.6 10.134V18.6C3.6 19.0774 3.78964 19.5352 4.12721 19.8728C4.46477 20.2103 4.92261 20.4 5.4 20.4H7.8C8.27739 20.4 8.73523 20.2103 9.07279 19.8728C9.41036 19.5352 9.6 19.0774 9.6 18.6V13.8C9.6 13.6409 9.66321 13.4882 9.77573 13.3757C9.88826 13.2632 10.0409 13.2 10.2 13.2H13.8C13.9591 13.2 14.1117 13.2632 14.2243 13.3757C14.3368 13.4882 14.4 13.6409 14.4 13.8V18.6C14.4 19.0774 14.5896 19.5352 14.9272 19.8728C15.2648 20.2103 15.7226 20.4 16.2 20.4H18.6C19.0774 20.4 19.5352 20.2103 19.8728 19.8728C20.2104 19.5352 20.4 19.0774 20.4 18.6V10.134C20.3999 9.88162 20.3468 9.63208 20.2441 9.40157C20.1413 9.17107 19.9913 8.96474 19.8036 8.79599L13.2036 2.86559H13.2024Z" fill="#99A4AE"/>
</svg>
