<svg width="24" height="24" viewBox="0 0 24 24" fill="none" xmlns="http://www.w3.org/2000/svg">
<path d="M6.21427 1.71429C5.47546 1.71429 4.7669 2.00779 4.24448 2.53021C3.72205 3.05263 3.42856 3.76119 3.42856 4.50001V19.5C3.42856 20.2388 3.72205 20.9474 4.24448 21.4698C4.7669 21.9922 5.47546 22.2857 6.21427 22.2857H14.4154L12.5666 20.4369C12.3875 20.2578 12.2454 20.0452 12.1485 19.8112C12.0516 19.5772 12.0017 19.3264 12.0017 19.0732C12.0017 18.8199 12.0516 18.5691 12.1485 18.3351C12.2454 18.1011 12.3875 17.8885 12.5666 17.7094C12.7456 17.5303 12.9582 17.3883 13.1922 17.2914C13.4262 17.1945 13.677 17.1446 13.9303 17.1446C14.1835 17.1446 14.4343 17.1945 14.6683 17.2914C14.9023 17.3883 15.1149 17.5303 15.294 17.7094L16.5 18.9154L20.2791 15.1363C20.37 15.0454 20.4677 14.9649 20.5714 14.8963V4.50001C20.5714 3.76119 20.2779 3.05263 19.7555 2.53021C19.2331 2.00779 18.5245 1.71429 17.7857 1.71429H6.21427ZM8.99999 7.50001C8.99999 7.78417 8.8871 8.05669 8.68617 8.25762C8.48524 8.45855 8.21272 8.57144 7.92856 8.57144C7.6444 8.57144 7.37188 8.45855 7.17094 8.25762C6.97001 8.05669 6.85713 7.78417 6.85713 7.50001C6.85713 7.21585 6.97001 6.94333 7.17094 6.74239C7.37188 6.54146 7.6444 6.42858 7.92856 6.42858C8.21272 6.42858 8.48524 6.54146 8.68617 6.74239C8.8871 6.94333 8.99999 7.21585 8.99999 7.50001ZM7.92856 13.0714C7.6444 13.0714 7.37188 12.9586 7.17094 12.7576C6.97001 12.5567 6.85713 12.2842 6.85713 12C6.85713 11.7158 6.97001 11.4433 7.17094 11.2424C7.37188 11.0415 7.6444 10.9286 7.92856 10.9286C8.21272 10.9286 8.48524 11.0415 8.68617 11.2424C8.8871 11.4433 8.99999 11.7158 8.99999 12C8.99999 12.2842 8.8871 12.5567 8.68617 12.7576C8.48524 12.9586 8.21272 13.0714 7.92856 13.0714ZM7.92856 17.5714C7.6444 17.5714 7.37188 17.4586 7.17094 17.2576C6.97001 17.0567 6.85713 16.7842 6.85713 16.5C6.85713 16.2158 6.97001 15.9433 7.17094 15.7424C7.37188 15.5415 7.6444 15.4286 7.92856 15.4286C8.21272 15.4286 8.48524 15.5415 8.68617 15.7424C8.8871 15.9433 8.99999 16.2158 8.99999 16.5C8.99999 16.7842 8.8871 17.0567 8.68617 17.2576C8.48524 17.4586 8.21272 17.5714 7.92856 17.5714ZM10.9286 6.85715H16.5C16.6705 6.85715 16.834 6.92488 16.9546 7.04544C17.0751 7.166 17.1428 7.32951 17.1428 7.50001C17.1428 7.6705 17.0751 7.83402 16.9546 7.95458C16.834 8.07514 16.6705 8.14287 16.5 8.14287H10.9286C10.7581 8.14287 10.5945 8.07514 10.474 7.95458C10.3534 7.83402 10.2857 7.6705 10.2857 7.50001C10.2857 7.32951 10.3534 7.166 10.474 7.04544C10.5945 6.92488 10.7581 6.85715 10.9286 6.85715ZM10.2857 12C10.2857 11.8295 10.3534 11.666 10.474 11.5454C10.5945 11.4249 10.7581 11.3572 10.9286 11.3572H16.5C16.6705 11.3572 16.834 11.4249 16.9546 11.5454C17.0751 11.666 17.1428 11.8295 17.1428 12C17.1428 12.1705 17.0751 12.334 16.9546 12.4546C16.834 12.5751 16.6705 12.6429 16.5 12.6429H10.9286C10.7581 12.6429 10.5945 12.5751 10.474 12.4546C10.3534 12.334 10.2857 12.1705 10.2857 12ZM10.9286 15.8572H16.5C16.6705 15.8572 16.834 15.9249 16.9546 16.0454C17.0751 16.166 17.1428 16.3295 17.1428 16.5C17.1428 16.6705 17.0751 16.834 16.9546 16.9546C16.834 17.0751 16.6705 17.1429 16.5 17.1429H10.9286C10.7581 17.1429 10.5945 17.0751 10.474 16.9546C10.3534 16.834 10.2857 16.6705 10.2857 16.5C10.2857 16.3295 10.3534 16.166 10.474 16.0454C10.5945 15.9249 10.7581 15.8572 10.9286 15.8572Z" fill="#99A4AE"/>
<path d="M16.9543 22.0972L22.0971 16.9543C22.1603 16.8955 22.2109 16.8245 22.2461 16.7456C22.2812 16.6668 22.3001 16.5816 22.3016 16.4953C22.3031 16.409 22.2873 16.3233 22.2549 16.2432C22.2226 16.1632 22.1745 16.0905 22.1134 16.0294C22.0524 15.9684 21.9797 15.9202 21.8996 15.8879C21.8196 15.8556 21.7338 15.8397 21.6475 15.8412C21.5612 15.8427 21.4761 15.8616 21.3972 15.8968C21.3184 15.9319 21.2474 15.9826 21.1885 16.0457L16.5 20.7343L14.3845 18.6189C14.2627 18.5053 14.1015 18.4435 13.935 18.4464C13.7684 18.4494 13.6095 18.5168 13.4917 18.6346C13.3739 18.7524 13.3065 18.9113 13.3035 19.0779C13.3006 19.2444 13.3624 19.4056 13.476 19.5274L16.0457 22.0972C16.1662 22.2175 16.3296 22.2852 16.5 22.2852C16.6703 22.2852 16.8337 22.2175 16.9543 22.0972Z" fill="#99A4AE"/>
</svg>
