<svg width="25" height="24" viewBox="0 0 25 24" fill="none" xmlns="http://www.w3.org/2000/svg">
<g clip-path="url(#clip0_576_370)">
<path d="M22.4 18.7533L22.1733 18.5534C21.5303 17.9804 20.9674 17.3234 20.5 16.6C19.9895 15.6017 19.6835 14.5115 19.6 13.3934V10.1C19.6044 8.34376 18.9673 6.64633 17.8085 5.32666C16.6496 4.007 15.0488 3.15592 13.3067 2.93335V2.07335C13.3067 1.83731 13.2129 1.61093 13.046 1.44402C12.8791 1.27712 12.6527 1.18335 12.4167 1.18335C12.1806 1.18335 11.9542 1.27712 11.7873 1.44402C11.6204 1.61093 11.5267 1.83731 11.5267 2.07335V2.94668C9.80016 3.1853 8.21864 4.04152 7.07501 5.35675C5.93138 6.67199 5.30315 8.35711 5.30666 10.1V13.3934C5.22316 14.5115 4.91718 15.6017 4.40666 16.6C3.94725 17.3216 3.39346 17.9785 2.75999 18.5534L2.53333 18.7533V20.6334H22.4V18.7533Z" fill="#99A4AE"/>
<path d="M10.7133 21.3333C10.7718 21.7559 10.9812 22.1431 11.3028 22.4233C11.6245 22.7035 12.0367 22.8579 12.4633 22.8579C12.8899 22.8579 13.3021 22.7035 13.6238 22.4233C13.9455 22.1431 14.1549 21.7559 14.2133 21.3333H10.7133Z" fill="#99A4AE"/>
</g>
<defs>
<clipPath id="clip0_576_370">
<rect width="24" height="24" fill="white" transform="translate(0.5)"/>
</clipPath>
</defs>
</svg>
