<svg width="21" height="20" viewBox="0 0 21 20" fill="none" xmlns="http://www.w3.org/2000/svg">
<path d="M20.1328 4.6469C19.8187 3.91949 19.3657 3.26031 18.7992 2.70627C18.2323 2.15058 17.564 1.70898 16.8305 1.40549C16.0699 1.08953 15.2541 0.927808 14.4305 0.929704C13.275 0.929704 12.1477 1.24611 11.168 1.84377C10.9336 1.98674 10.7109 2.14377 10.5 2.31486C10.2891 2.14377 10.0664 1.98674 9.83203 1.84377C8.85234 1.24611 7.725 0.929704 6.56953 0.929704C5.7375 0.929704 4.93125 1.08908 4.16953 1.40549C3.43359 1.71017 2.77031 2.14846 2.20078 2.70627C1.63359 3.25968 1.1805 3.91902 0.867188 4.6469C0.541406 5.40393 0.375 6.20784 0.375 7.03519C0.375 7.81566 0.534375 8.62894 0.850781 9.45629C1.11563 10.1477 1.49531 10.8649 1.98047 11.5891C2.74922 12.7352 3.80625 13.9305 5.11875 15.1422C7.29375 17.1508 9.44766 18.5383 9.53906 18.5946L10.0945 18.9508C10.3406 19.1079 10.657 19.1079 10.9031 18.9508L11.4586 18.5946C11.55 18.536 13.7016 17.1508 15.8789 15.1422C17.1914 13.9305 18.2484 12.7352 19.0172 11.5891C19.5023 10.8649 19.8844 10.1477 20.1469 9.45629C20.4633 8.62894 20.6227 7.81566 20.6227 7.03519C20.625 6.20784 20.4586 5.40393 20.1328 4.6469Z" fill="#99A4AE"/>
</svg>
