<svg width="25" height="25" viewBox="0 0 25 25" fill="none" xmlns="http://www.w3.org/2000/svg">
<path d="M5.5 21.25C4.95 21.25 4.479 21.054 4.087 20.662C3.695 20.27 3.49934 19.7993 3.5 19.25V5.25C3.5 4.7 3.696 4.229 4.088 3.837C4.48 3.445 4.95067 3.24934 5.5 3.25H19.5C20.05 3.25 20.521 3.446 20.913 3.838C21.305 4.23 21.5007 4.70067 21.5 5.25V19.25C21.5 19.8 21.304 20.271 20.912 20.663C20.52 21.055 20.0493 21.2507 19.5 21.25H5.5ZM6.5 17.25H18.5L14.75 12.25L11.75 16.25L9.5 13.25L6.5 17.25Z" fill="black"/>
</svg>
