<svg width="48" height="49" viewBox="0 0 48 49" fill="none" xmlns="http://www.w3.org/2000/svg">
<path d="M36 30.5746V36.6018H30V40.6199H36V46.647H40V40.6199H46V36.6018H40V30.5746H36ZM26.6 42.6289H10C7.8 42.6289 6 40.8208 6 38.6108V10.4841C6 8.27419 7.8 6.46605 10 6.46605H38C40.2 6.46605 42 8.27419 42 10.4841V27.1593C40.8 26.7575 39.4 26.5565 38 26.5565C35.8 26.5565 33.6 27.1593 31.8 28.3647L29 24.5475L22 33.5882L17 27.5611L10 36.6018H26.2C26 37.2045 26 38.0081 26 38.6108C26 40.0172 26.2 41.4235 26.6 42.6289Z" fill="#007FFF"/>
</svg>
