<svg width="20" height="20" viewBox="0 0 20 20" fill="none" xmlns="http://www.w3.org/2000/svg">
<path fill-rule="evenodd" clip-rule="evenodd" d="M6.66668 2.08337H12.0833L15.8333 5.83337V15.4167C15.8333 15.6377 15.7455 15.8497 15.5893 16.006C15.433 16.1622 15.221 16.25 15 16.25H6.66668C6.44566 16.25 6.2337 16.1622 6.07742 16.006C5.92114 15.8497 5.83334 15.6377 5.83334 15.4167V2.91671C5.83334 2.69569 5.92114 2.48373 6.07742 2.32745C6.2337 2.17117 6.44566 2.08337 6.66668 2.08337ZM14.5833 5.83337L12.0833 3.33337V5.41671C12.0833 5.52721 12.1272 5.6332 12.2054 5.71134C12.2835 5.78948 12.3895 5.83337 12.5 5.83337H14.5833ZM13.6279 8.87212C13.706 8.95026 13.7499 9.05622 13.7499 9.16671C13.7499 9.27719 13.706 9.38315 13.6279 9.46129L10 13.0892L8.03876 11.128C7.96286 11.0494 7.92086 10.9441 7.92181 10.8349C7.92276 10.7256 7.96658 10.6211 8.04384 10.5439C8.12109 10.4666 8.22559 10.4228 8.33484 10.4218C8.44409 10.4209 8.54934 10.4629 8.62793 10.5388L10 11.9109L13.0388 8.87212C13.1169 8.79401 13.2229 8.75013 13.3333 8.75013C13.4438 8.75013 13.5498 8.79401 13.6279 8.87212Z" fill="#00CE15"/>
<path d="M5.00001 4.58337H4.16667V15.8334C4.16667 16.3859 4.38617 16.9158 4.77687 17.3065C5.16757 17.6972 5.69747 17.9167 6.25001 17.9167H14.1667V17.0834H6.25001C5.91848 17.0834 5.60054 16.9517 5.36612 16.7173C5.1317 16.4828 5.00001 16.1649 5.00001 15.8334V4.58337Z" fill="#00CE15"/>
</svg>
