<svg width="16" height="16" viewBox="0 0 16 16" fill="none" xmlns="http://www.w3.org/2000/svg">
<path d="M8 14L0 5.99996C1.06667 4.91107 2.28889 4.08329 3.66667 3.51663C5.04444 2.94996 6.48889 2.66663 8 2.66663C9.52222 2.66663 10.9722 2.94996 12.35 3.51663C13.7278 4.08329 14.9444 4.91107 16 5.99996L8 14ZM2.9 6.99996C3.62222 6.47774 4.414 6.06929 5.27533 5.77463C6.13622 5.4804 7.04444 5.33329 8 5.33329C8.95556 5.33329 9.864 5.4804 10.7253 5.77463C11.5862 6.06929 12.3778 6.47774 13.1 6.99996L14.0667 6.03329C13.2 5.37774 12.2529 4.87485 11.2253 4.52463C10.1973 4.17485 9.12222 3.99996 8 3.99996C6.87778 3.99996 5.80267 4.17485 4.77467 4.52463C3.74711 4.87485 2.8 5.37774 1.93333 6.03329L2.9 6.99996Z" fill="#007FFF"/>
</svg>
