<svg width="24" height="24" viewBox="0 0 24 24" fill="none" xmlns="http://www.w3.org/2000/svg">
<path d="M19.5 1.125H16.125C15.8266 1.125 15.5405 1.24353 15.3295 1.4545C15.1185 1.66548 15 1.95163 15 2.25C15 2.54837 15.1185 2.83452 15.3295 3.0455C15.5405 3.25647 15.8266 3.375 16.125 3.375H16.7812L15.375 4.79062C14.1973 3.87021 12.7447 3.37171 11.25 3.375C9.55682 3.37402 7.92511 4.0094 6.67847 5.15514C5.43183 6.30089 4.66131 7.8733 4.51972 9.56055C4.37813 11.2478 4.87582 12.9266 5.91408 14.2641C6.95234 15.6016 8.45534 16.5 10.125 16.7812V18H8.25C7.95163 18 7.66548 18.1185 7.4545 18.3295C7.24352 18.5405 7.125 18.8266 7.125 19.125C7.125 19.4234 7.24352 19.7095 7.4545 19.9205C7.66548 20.1315 7.95163 20.25 8.25 20.25H10.125V21.75C10.125 22.0484 10.2435 22.3345 10.4545 22.5455C10.6655 22.7565 10.9516 22.875 11.25 22.875C11.5484 22.875 11.8345 22.7565 12.0455 22.5455C12.2565 22.3345 12.375 22.0484 12.375 21.75V20.25H14.25C14.5484 20.25 14.8345 20.1315 15.0455 19.9205C15.2565 19.7095 15.375 19.4234 15.375 19.125C15.375 18.8266 15.2565 18.5405 15.0455 18.3295C14.8345 18.1185 14.5484 18 14.25 18H12.375V16.7812C13.4791 16.5943 14.5193 16.1356 15.402 15.4464C16.2846 14.7573 16.982 13.8594 17.4311 12.8336C17.8803 11.8078 18.0673 10.6864 17.9751 9.57037C17.8829 8.45436 17.5145 7.3788 16.9031 6.44062L18.375 4.96875V5.625C18.375 5.92337 18.4935 6.20952 18.7045 6.4205C18.9155 6.63147 19.2016 6.75 19.5 6.75C19.7984 6.75 20.0845 6.63147 20.2955 6.4205C20.5065 6.20952 20.625 5.92337 20.625 5.625V2.25C20.625 1.95163 20.5065 1.66548 20.2955 1.4545C20.0845 1.24353 19.7984 1.125 19.5 1.125ZM11.25 14.625C10.36 14.625 9.48995 14.3611 8.74993 13.8666C8.00991 13.3721 7.43313 12.6693 7.09254 11.8471C6.75194 11.0248 6.66283 10.12 6.83646 9.24709C7.0101 8.37418 7.43868 7.57236 8.06802 6.94302C8.69735 6.31368 9.49918 5.8851 10.3721 5.71147C11.245 5.53783 12.1498 5.62695 12.9721 5.96754C13.7943 6.30814 14.4971 6.88491 14.9916 7.62493C15.4861 8.36495 15.75 9.23498 15.75 10.125C15.75 11.3185 15.2759 12.4631 14.432 13.307C13.5881 14.1509 12.4435 14.625 11.25 14.625Z" fill="#99A4AE"/>
</svg>
