<svg width="24" height="24" viewBox="0 0 24 24" fill="none" xmlns="http://www.w3.org/2000/svg">
<path fill-rule="evenodd" clip-rule="evenodd" d="M17.834 6.166C16.6802 5.01232 15.2102 4.22669 13.6098 3.90845C12.0095 3.5902 10.3508 3.75364 8.84336 4.37809C7.33593 5.00255 6.04752 6.05997 5.14104 7.41665C4.23457 8.77334 3.75074 10.3683 3.75074 12C3.75074 13.6317 4.23457 15.2267 5.14104 16.5833C6.04752 17.94 7.33593 18.9975 8.84336 19.6219C10.3508 20.2464 12.0095 20.4098 13.6098 20.0916C15.2102 19.7733 16.6802 18.9877 17.834 17.834C17.9762 17.7015 18.1642 17.6294 18.3585 17.6328C18.5528 17.6363 18.7382 17.715 18.8756 17.8524C19.013 17.9898 19.0917 18.1752 19.0952 18.3695C19.0986 18.5638 19.0265 18.7518 18.894 18.894C15.087 22.702 8.914 22.702 5.106 18.894C1.298 15.087 1.298 8.914 5.106 5.106C8.913 1.298 15.086 1.298 18.894 5.106C19.8006 6.01039 20.5197 7.08499 21.0098 8.26807C21.4999 9.45116 21.7515 10.7194 21.75 12C21.75 12.975 21.454 13.887 20.941 14.571C20.427 15.256 19.661 15.75 18.75 15.75C17.846 15.75 17.084 15.263 16.57 14.586C16.0278 15.5444 15.1979 16.3081 14.1978 16.7689C13.1978 17.2298 12.0781 17.3645 10.9972 17.1541C9.91634 16.9436 8.92901 16.3986 8.1749 15.5962C7.4208 14.7938 6.93808 13.7746 6.79506 12.6827C6.65204 11.5909 6.85596 10.4817 7.37795 9.51214C7.89995 8.54256 8.7136 7.76166 9.70379 7.27991C10.694 6.79817 11.8106 6.63997 12.8956 6.8277C13.9807 7.01543 14.9792 7.53958 15.75 8.326V8.25C15.75 8.05109 15.829 7.86032 15.9697 7.71967C16.1103 7.57902 16.3011 7.5 16.5 7.5C16.6989 7.5 16.8897 7.57902 17.0303 7.71967C17.171 7.86032 17.25 8.05109 17.25 8.25V12C17.25 12.682 17.458 13.27 17.759 13.671C18.059 14.072 18.418 14.25 18.75 14.25C19.082 14.25 19.44 14.072 19.741 13.671C20.041 13.271 20.25 12.681 20.25 12C20.2516 10.9163 20.039 9.84303 19.6244 8.84182C19.2098 7.84061 18.6013 6.93124 17.834 6.166V6.166ZM15.75 12C15.75 11.0054 15.3549 10.0516 14.6517 9.34835C13.9484 8.64509 12.9946 8.25 12 8.25C11.0054 8.25 10.0516 8.64509 9.34835 9.34835C8.64509 10.0516 8.25 11.0054 8.25 12C8.25 12.9946 8.64509 13.9484 9.34835 14.6517C10.0516 15.3549 11.0054 15.75 12 15.75C12.9946 15.75 13.9484 15.3549 14.6517 14.6517C15.3549 13.9484 15.75 12.9946 15.75 12Z" fill="#99A4AE"/>
</svg>
