<svg width="18" height="18" viewBox="0 0 18 18" fill="none" xmlns="http://www.w3.org/2000/svg">
<path fill-rule="evenodd" clip-rule="evenodd" d="M1.5 6C1.5 5.60218 1.65804 5.22064 1.93934 4.93934C2.22064 4.65804 2.60218 4.5 3 4.5H15C15.3978 4.5 15.7794 4.65804 16.0607 4.93934C16.342 5.22064 16.5 5.60218 16.5 6C16.5 6.39782 16.342 6.77936 16.0607 7.06066C15.7794 7.34196 15.3978 7.5 15 7.5H3C2.60218 7.5 2.22064 7.34196 1.93934 7.06066C1.65804 6.77936 1.5 6.39782 1.5 6ZM1.5 12C1.5 11.6022 1.65804 11.2206 1.93934 10.9393C2.22064 10.658 2.60218 10.5 3 10.5H15C15.3978 10.5 15.7794 10.658 16.0607 10.9393C16.342 11.2206 16.5 11.6022 16.5 12C16.5 12.3978 16.342 12.7794 16.0607 13.0607C15.7794 13.342 15.3978 13.5 15 13.5H3C2.60218 13.5 2.22064 13.342 1.93934 13.0607C1.65804 12.7794 1.5 12.3978 1.5 12Z" fill="#AAABAB"/>
</svg>
