<svg width="16" height="16" viewBox="0 0 16 16" fill="none" xmlns="http://www.w3.org/2000/svg">
<path d="M8 3.66663C8.61884 3.66663 9.21233 3.91246 9.64992 4.35004C10.0875 4.78763 10.3333 5.38112 10.3333 5.99996C10.3333 6.6188 10.0875 7.21229 9.64992 7.64988C9.21233 8.08746 8.61884 8.33329 8 8.33329C7.38116 8.33329 6.78767 8.08746 6.35008 7.64988C5.9125 7.21229 5.66667 6.6188 5.66667 5.99996C5.66667 5.38112 5.9125 4.78763 6.35008 4.35004C6.78767 3.91246 7.38116 3.66663 8 3.66663ZM3.33333 5.33329C3.70667 5.33329 4.05333 5.43329 4.35333 5.61329C4.25333 6.56663 4.53333 7.51329 5.10667 8.25329C4.77333 8.89329 4.10667 9.33329 3.33333 9.33329C2.8029 9.33329 2.29419 9.12258 1.91912 8.74751C1.54405 8.37243 1.33333 7.86373 1.33333 7.33329C1.33333 6.80286 1.54405 6.29415 1.91912 5.91908C2.29419 5.54401 2.8029 5.33329 3.33333 5.33329ZM12.6667 5.33329C13.1971 5.33329 13.7058 5.54401 14.0809 5.91908C14.456 6.29415 14.6667 6.80286 14.6667 7.33329C14.6667 7.86373 14.456 8.37243 14.0809 8.74751C13.7058 9.12258 13.1971 9.33329 12.6667 9.33329C11.8933 9.33329 11.2267 8.89329 10.8933 8.25329C11.4746 7.50291 11.7444 6.55742 11.6467 5.61329C11.9467 5.43329 12.2933 5.33329 12.6667 5.33329ZM3.66667 12.1666C3.66667 10.7866 5.60667 9.66663 8 9.66663C10.3933 9.66663 12.3333 10.7866 12.3333 12.1666V13.3333H3.66667V12.1666ZM0 13.3333V12.3333C0 11.4066 1.26 10.6266 2.96667 10.4C2.57333 10.8533 2.33333 11.48 2.33333 12.1666V13.3333H0ZM16 13.3333H13.6667V12.1666C13.6667 11.48 13.4267 10.8533 13.0333 10.4C14.74 10.6266 16 11.4066 16 12.3333V13.3333Z" fill="#99A4AE"/>
</svg>
