<svg width="36" height="36" viewBox="0 0 36 36" fill="none" xmlns="http://www.w3.org/2000/svg">
<circle cx="18" cy="18" r="18" fill="#99A4AE"/>
<path d="M23.56 20.24C23.84 19.55 24 18.79 24 18C24 14.69 21.31 12 18 12C17.21 12 16.45 12.16 15.76 12.44L17.38 14.06C17.58 14.03 17.79 14 18 14C18.5786 13.9998 19.1504 14.1252 19.6758 14.3676C20.2013 14.6099 20.6678 14.9633 21.0434 15.4035C21.4189 15.8437 21.6945 16.3602 21.851 16.9172C22.0075 17.4743 22.0413 18.0586 21.95 18.63L23.56 20.24ZM18 10C22.42 10 26 13.58 26 18C26 19.35 25.65 20.62 25.05 21.74L26.52 23.21C27.49 21.6455 28.0027 19.8408 28 18C28 12.48 23.52 8 18 8C16.09 8 14.31 8.55 12.79 9.47L14.25 10.93C15.37 10.34 16.65 10 18 10ZM9.27 8.5L8 9.77L10.1 11.87C8.79 13.57 8 15.69 8 18C8 21.7 10.01 24.92 12.99 26.65L13.99 24.92C11.61 23.53 10 20.96 10 18C10 16.24 10.57 14.62 11.53 13.31L12.96 14.75C12.36 15.68 12 16.8 12 18C12 20.22 13.21 22.15 15 23.19L16 21.45C14.81 20.75 14 19.48 14 18C14 17.35 14.17 16.75 14.44 16.21L16.02 17.79L16 18C16 19.1 16.9 20 18 20L18.21 19.98L18.22 19.99L25.73 27.5L27 26.23L10.27 9.5L9.27 8.5Z" fill="white"/>
</svg>
