<svg width="36" height="36" viewBox="0 0 36 36" fill="none" xmlns="http://www.w3.org/2000/svg">
<circle cx="18" cy="18" r="18" fill="#007FFF"/>
<path d="M18 21C17.45 21 16.9793 20.804 16.588 20.412C16.196 20.0207 16 19.55 16 19C16 18.45 16.196 17.979 16.588 17.587C16.9793 17.1957 17.45 17 18 17C18.55 17 19.021 17.1957 19.413 17.587C19.8043 17.979 20 18.45 20 19C20 19.55 19.8043 20.0207 19.413 20.412C19.021 20.804 18.55 21 18 21ZM13.25 22.675C12.8667 22.1583 12.5627 21.5917 12.338 20.975C12.1127 20.3583 12 19.7 12 19C12 17.3333 12.5833 15.9167 13.75 14.75C14.9167 13.5833 16.3333 13 18 13C19.6667 13 21.0833 13.5833 22.25 14.75C23.4167 15.9167 24 17.3333 24 19C24 19.7 23.8877 20.3667 23.663 21C23.4377 21.6333 23.1333 22.2 22.75 22.7C22.5833 22.9167 22.3623 23.025 22.087 23.025C21.8123 23.025 21.5667 22.9167 21.35 22.7C21.1667 22.5167 21.0707 22.2917 21.062 22.025C21.054 21.7583 21.1333 21.5 21.3 21.25C21.5333 20.9167 21.7083 20.5627 21.825 20.188C21.9417 19.8127 22 19.4167 22 19C22 17.9 21.6083 16.9583 20.825 16.175C20.0417 15.3917 19.1 15 18 15C16.9 15 15.9583 15.3917 15.175 16.175C14.3917 16.9583 14 17.9 14 19C14 19.4333 14.0627 19.8333 14.188 20.2C14.3127 20.5667 14.4833 20.9167 14.7 21.25C14.8667 21.5 14.9417 21.7627 14.925 22.038C14.9083 22.3127 14.8083 22.5417 14.625 22.725C14.425 22.925 14.1877 23.0207 13.913 23.012C13.6377 23.004 13.4167 22.8917 13.25 22.675ZM10.425 25.525C9.675 24.6417 9.08333 23.646 8.65 22.538C8.21667 21.4293 8 20.25 8 19C8 17.6167 8.26267 16.3167 8.788 15.1C9.31267 13.8833 10.025 12.825 10.925 11.925C11.825 11.025 12.8833 10.3123 14.1 9.787C15.3167 9.26233 16.6167 9 18 9C19.3833 9 20.6833 9.26233 21.9 9.787C23.1167 10.3123 24.175 11.025 25.075 11.925C25.975 12.825 26.6873 13.8833 27.212 15.1C27.7373 16.3167 28 17.6167 28 19C28 20.25 27.7833 21.4333 27.35 22.55C26.9167 23.6667 26.325 24.6667 25.575 25.55C25.3917 25.75 25.1667 25.85 24.9 25.85C24.6333 25.85 24.4 25.75 24.2 25.55C24.0167 25.3667 23.921 25.1373 23.913 24.862C23.9043 24.5873 23.9917 24.3417 24.175 24.125C24.7417 23.425 25.1877 22.6417 25.513 21.775C25.8377 20.9083 26 19.9833 26 19C26 16.7667 25.225 14.875 23.675 13.325C22.125 11.775 20.2333 11 18 11C15.7667 11 13.875 11.775 12.325 13.325C10.775 14.875 10 16.7667 10 19C10 19.9833 10.1627 20.904 10.488 21.762C10.8127 22.6207 11.2667 23.4 11.85 24.1C12.0333 24.3167 12.121 24.5623 12.113 24.837C12.1043 25.1123 12 25.35 11.8 25.55C11.6 25.75 11.3667 25.8457 11.1 25.837C10.8333 25.829 10.6083 25.725 10.425 25.525Z" fill="white"/>
</svg>
