<svg width="13" height="14" viewBox="0 0 13 14" fill="none" xmlns="http://www.w3.org/2000/svg">
<g clip-path="url(#clip0_1020_742)">
<path d="M12.5798 4.8035L8.68268 4.2104L6.94055 0.51194C6.89297 0.410679 6.81469 0.328705 6.71799 0.278878C6.47547 0.153506 6.18077 0.257983 6.05951 0.51194L4.31738 4.2104L0.420236 4.8035C0.312792 4.81957 0.214557 4.87262 0.139346 4.95298C0.0484205 5.05085 -0.00168366 5.18251 4.32016e-05 5.31904C0.00177006 5.45557 0.0551867 5.58579 0.148556 5.6811L2.96819 8.55982L2.30204 12.6247C2.28642 12.7193 2.29641 12.8166 2.33088 12.9055C2.36536 12.9944 2.42293 13.0714 2.49708 13.1278C2.57123 13.1842 2.65898 13.2177 2.75039 13.2245C2.8418 13.2314 2.9332 13.2112 3.01424 13.1664L6.50003 11.2473L9.98582 13.1664C10.081 13.2195 10.1915 13.2371 10.2974 13.2179C10.5645 13.1696 10.7441 12.9044 10.698 12.6247L10.0319 8.55982L12.8515 5.6811C12.9283 5.60234 12.9789 5.49947 12.9943 5.38696C13.0357 5.10568 12.8484 4.84529 12.5798 4.8035V4.8035Z" fill="#99A4AE"/>
</g>
<defs>
<clipPath id="clip0_1020_742">
<rect y="0.22583" width="13" height="13" rx="5" fill="white"/>
</clipPath>
</defs>
</svg>
