<svg width="16" height="16" viewBox="0 0 16 16" fill="none" xmlns="http://www.w3.org/2000/svg">
<path d="M4.14285 1.14285C3.6503 1.14285 3.17793 1.33852 2.82965 1.6868C2.48137 2.03508 2.28571 2.50745 2.28571 3V13C2.28571 13.4925 2.48137 13.9649 2.82965 14.3132C3.17793 14.6615 3.6503 14.8571 4.14285 14.8571H9.61028L8.37771 13.6246C8.25832 13.5052 8.16361 13.3634 8.099 13.2074C8.03438 13.0515 8.00113 12.8843 8.00113 12.7154C8.00113 12.5466 8.03438 12.3794 8.099 12.2234C8.16361 12.0674 8.25832 11.9257 8.37771 11.8063C8.4971 11.6869 8.63883 11.5922 8.79482 11.5276C8.95082 11.463 9.11801 11.4297 9.28685 11.4297C9.45569 11.4297 9.62288 11.463 9.77887 11.5276C9.93486 11.5922 10.0766 11.6869 10.196 11.8063L11 12.6103L13.5194 10.0909C13.58 10.0303 13.6451 9.97657 13.7143 9.93085V3C13.7143 2.50745 13.5186 2.03508 13.1703 1.6868C12.8221 1.33852 12.3497 1.14285 11.8571 1.14285H4.14285ZM5.99999 5C5.99999 5.18944 5.92474 5.37112 5.79078 5.50507C5.65683 5.63903 5.47515 5.71428 5.28571 5.71428C5.09627 5.71428 4.91458 5.63903 4.78063 5.50507C4.64667 5.37112 4.57142 5.18944 4.57142 5C4.57142 4.81055 4.64667 4.62887 4.78063 4.49492C4.91458 4.36096 5.09627 4.28571 5.28571 4.28571C5.47515 4.28571 5.65683 4.36096 5.79078 4.49492C5.92474 4.62887 5.99999 4.81055 5.99999 5ZM5.28571 8.71428C5.09627 8.71428 4.91458 8.63903 4.78063 8.50507C4.64667 8.37112 4.57142 8.18944 4.57142 8C4.57142 7.81055 4.64667 7.62887 4.78063 7.49492C4.91458 7.36096 5.09627 7.28571 5.28571 7.28571C5.47515 7.28571 5.65683 7.36096 5.79078 7.49492C5.92474 7.62887 5.99999 7.81055 5.99999 8C5.99999 8.18944 5.92474 8.37112 5.79078 8.50507C5.65683 8.63903 5.47515 8.71428 5.28571 8.71428ZM5.28571 11.7143C5.09627 11.7143 4.91458 11.639 4.78063 11.5051C4.64667 11.3711 4.57142 11.1894 4.57142 11C4.57142 10.8106 4.64667 10.6289 4.78063 10.4949C4.91458 10.361 5.09627 10.2857 5.28571 10.2857C5.47515 10.2857 5.65683 10.361 5.79078 10.4949C5.92474 10.6289 5.99999 10.8106 5.99999 11C5.99999 11.1894 5.92474 11.3711 5.79078 11.5051C5.65683 11.639 5.47515 11.7143 5.28571 11.7143ZM7.28571 4.57142H11C11.1137 4.57142 11.2227 4.61658 11.303 4.69695C11.3834 4.77732 11.4286 4.88633 11.4286 5C11.4286 5.11366 11.3834 5.22267 11.303 5.30304C11.2227 5.38341 11.1137 5.42857 11 5.42857H7.28571C7.17204 5.42857 7.06303 5.38341 6.98266 5.30304C6.90229 5.22267 6.85713 5.11366 6.85713 5C6.85713 4.88633 6.90229 4.77732 6.98266 4.69695C7.06303 4.61658 7.17204 4.57142 7.28571 4.57142ZM6.85713 8C6.85713 7.88633 6.90229 7.77732 6.98266 7.69695C7.06303 7.61658 7.17204 7.57142 7.28571 7.57142H11C11.1137 7.57142 11.2227 7.61658 11.303 7.69695C11.3834 7.77732 11.4286 7.88633 11.4286 8C11.4286 8.11366 11.3834 8.22267 11.303 8.30304C11.2227 8.38341 11.1137 8.42857 11 8.42857H7.28571C7.17204 8.42857 7.06303 8.38341 6.98266 8.30304C6.90229 8.22267 6.85713 8.11366 6.85713 8ZM7.28571 10.5714H11C11.1137 10.5714 11.2227 10.6166 11.303 10.6969C11.3834 10.7773 11.4286 10.8863 11.4286 11C11.4286 11.1137 11.3834 11.2227 11.303 11.303C11.2227 11.3834 11.1137 11.4286 11 11.4286H7.28571C7.17204 11.4286 7.06303 11.3834 6.98266 11.303C6.90229 11.2227 6.85713 11.1137 6.85713 11C6.85713 10.8863 6.90229 10.7773 6.98266 10.6969C7.06303 10.6166 7.17204 10.5714 7.28571 10.5714Z" fill="#32DE84"/>
<path d="M11.3028 14.7314L14.7314 11.3028C14.7735 11.2636 14.8073 11.2163 14.8307 11.1637C14.8541 11.1112 14.8667 11.0544 14.8677 10.9969C14.8688 10.9393 14.8582 10.8822 14.8366 10.8288C14.8151 10.7754 14.783 10.727 14.7423 10.6863C14.7016 10.6456 14.6531 10.6135 14.5998 10.5919C14.5464 10.5704 14.4892 10.5598 14.4317 10.5608C14.3741 10.5618 14.3174 10.5744 14.2648 10.5978C14.2122 10.6213 14.1649 10.655 14.1257 10.6971L11 13.8228L9.5897 12.4126C9.50845 12.3369 9.401 12.2956 9.28997 12.2976C9.17894 12.2996 9.073 12.3445 8.99448 12.4231C8.91596 12.5016 8.87098 12.6075 8.86902 12.7185C8.86707 12.8296 8.90828 12.937 8.98398 13.0183L10.6971 14.7314C10.7775 14.8117 10.8864 14.8568 11 14.8568C11.1136 14.8568 11.2225 14.8117 11.3028 14.7314Z" fill="#32DE84"/>
</svg>
