<svg width="16" height="16" viewBox="0 0 16 16" fill="none" xmlns="http://www.w3.org/2000/svg">
<path d="M14.4219 4.43127C14.2124 3.94632 13.9104 3.50687 13.5328 3.13751C13.1549 2.76705 12.7093 2.47265 12.2203 2.27032C11.7132 2.05969 11.1694 1.95187 10.6203 1.95314C9.85 1.95314 9.09844 2.16407 8.44531 2.56251C8.28906 2.65783 8.14062 2.76251 8 2.87658C7.85938 2.76251 7.71094 2.65783 7.55469 2.56251C6.90156 2.16407 6.15 1.95314 5.37969 1.95314C4.825 1.95314 4.2875 2.05939 3.77969 2.27032C3.28906 2.47345 2.84687 2.76564 2.46719 3.13751C2.08906 3.50646 1.787 3.94601 1.57812 4.43127C1.36094 4.93596 1.25 5.4719 1.25 6.02346C1.25 6.54377 1.35625 7.08596 1.56719 7.63753C1.74375 8.09846 1.99687 8.57659 2.32031 9.0594C2.83281 9.82347 3.5375 10.6203 4.4125 11.4282C5.8625 12.7672 7.29844 13.6922 7.35938 13.7297L7.72969 13.9672C7.89375 14.0719 8.10469 14.0719 8.26875 13.9672L8.63906 13.7297C8.7 13.6907 10.1344 12.7672 11.5859 11.4282C12.4609 10.6203 13.1656 9.82347 13.6781 9.0594C14.0016 8.57659 14.2562 8.09846 14.4312 7.63753C14.6422 7.08596 14.7484 6.54377 14.7484 6.02346C14.75 5.4719 14.6391 4.93596 14.4219 4.43127Z" fill="#FF033E"/>
</svg>
